<svg width="108"
  height="108"
  viewBox="0 0 108 108"
  fill="none"
  xmlns="http://www.w3.org/2000/svg">
  <mask
    id="mask0_3_13"
    style="mask-type:alpha"
    maskUnits="userSpaceOnUse"
    x="0"
    y="0"
    width="108"
    height="108">
    <rect
      width="108"
      height="108"
      fill="#D9D9D9" />
  </mask>
  <g mask="url(#mask0_3_13)">
    <path
      d="M56.75 55.1L54.22 51.8C54 51.5067 53.7067 51.36 53.34 51.36C52.9733 51.36 52.68 51.5067 52.46 51.8L48.775 56.64C48.4817 57.0067 48.4358 57.3917 48.6375 57.795C48.8392 58.1983 49.1783 58.4 49.655 58.4H67.145C67.6217 58.4 67.9608 58.1983 68.1625 57.795C68.3642 57.3917 68.3183 57.0067 68.025 56.64L62.69 49.655C62.47 49.3617 62.1767 49.215 61.81 49.215C61.4433 49.215 61.15 49.3617 60.93 49.655L56.75 55.1ZM45.2 67.2C43.99 67.2 42.9542 66.7692 42.0925 65.9075C41.2308 65.0458 40.8 64.01 40.8 62.8V36.4C40.8 35.19 41.2308 34.1542 42.0925 33.2925C42.9542 32.4308 43.99 32 45.2 32H71.6C72.81 32 73.8458 32.4308 74.7075 33.2925C75.5692 34.1542 76 35.19 76 36.4V62.8C76 64.01 75.5692 65.0458 74.7075 65.9075C73.8458 66.7692 72.81 67.2 71.6 67.2H45.2ZM36.4 76C35.19 76 34.1542 75.5692 33.2925 74.7075C32.4308 73.8458 32 72.81 32 71.6V43C32 42.3767 32.2108 41.8542 32.6325 41.4325C33.0542 41.0108 33.5767 40.8 34.2 40.8C34.8233 40.8 35.3458 41.0108 35.7675 41.4325C36.1892 41.8542 36.4 42.3767 36.4 43V71.6H65C65.6233 71.6 66.1458 71.8108 66.5675 72.2325C66.9892 72.6542 67.2 73.1767 67.2 73.8C67.2 74.4233 66.9892 74.9458 66.5675 75.3675C66.1458 75.7892 65.6233 76 65 76H36.4Z"
      fill="#1C1B1F" />
  </g>
</svg>
